<svg width="252" height="196" viewBox="0 0 252 196" fill="none" xmlns="http://www.w3.org/2000/svg">
<ellipse cx="28.8287" cy="125.112" rx="14.8287" ry="14.8287" fill="#AE19B7" stroke="white" stroke-width="4"/>
<ellipse cx="76.2804" cy="171.866" rx="14.8287" ry="14.8287" fill="#AE19B7" stroke="white" stroke-width="4"/>
<ellipse cx="99.6573" cy="124.415" rx="14.8287" ry="14.8287" fill="#AE19B7" stroke="white" stroke-width="4"/>
<ellipse cx="84.6542" cy="72.427" rx="14.8287" ry="14.8287" fill="#AE19B7" stroke="white" stroke-width="4"/>
<ellipse cx="158.972" cy="87.4302" rx="14.8287" ry="14.8287" fill="#AE19B7" stroke="white" stroke-width="4"/>
<ellipse cx="150.947" cy="132.439" rx="14.8287" ry="14.8287" fill="#AE19B7" stroke="white" stroke-width="4"/>
<ellipse cx="208.517" cy="162.097" rx="14.8287" ry="14.8287" fill="#AE19B7" stroke="white" stroke-width="4"/>
<ellipse cx="223.171" cy="72.7759" rx="14.8287" ry="14.8287" fill="#AE19B7" stroke="white" stroke-width="4"/>
<ellipse cx="158.972" cy="23.9286" rx="14.8287" ry="14.8287" fill="#AE19B7" stroke="white" stroke-width="4"/>
<line x1="43.6573" y1="125.38" x2="84.8287" y2="125.38" stroke="white" stroke-width="4"/>
<line x1="97.567" y1="110.858" x2="90.2399" y2="86.4347" stroke="white" stroke-width="4"/>
<line x1="92.88" y1="137.73" x2="81.7149" y2="159.013" stroke="white" stroke-width="4"/>
<line x1="114.647" y1="126.433" x2="136.279" y2="128.178" stroke="white" stroke-width="4"/>
<line x1="155.88" y1="102.617" x2="153.089" y2="117.969" stroke="white" stroke-width="4"/>
<line x1="158.891" y1="72.6216" x2="158.542" y2="37.7306" stroke="white" stroke-width="4"/>
<line x1="173.412" y1="82.8516" x2="210.396" y2="75.5245" stroke="white" stroke-width="4"/>
<line x1="167.454" y1="100.125" x2="199.554" y2="149.67" stroke="white" stroke-width="4"/>
</svg>
