<svg width="252" height="196" viewBox="0 0 252 196" fill="none" xmlns="http://www.w3.org/2000/svg">
<rect x="14" y="33.6731" width="163.902" height="109.268" rx="8" fill="#62007E" stroke="white" stroke-width="3" stroke-linejoin="round"/>
<circle cx="24.6207" cy="44.1724" r="2.17241" fill="white"/>
<circle cx="31.1379" cy="44.1724" r="2.17241" fill="white"/>
<circle cx="37.6552" cy="44.1724" r="2.17241" fill="white"/>
<rect x="23.5853" y="53.7952" width="144.341" height="7.36585" rx="3.68293" stroke="white" stroke-width="2"/>
<rect x="23.5853" y="67.4536" width="64.3415" height="64.3415" rx="7" stroke="white" stroke-width="2"/>
<rect x="95.7805" y="67.4536" width="72.1463" height="21.4146" rx="7" stroke="white" stroke-width="2"/>
<rect x="95.7805" y="95.1609" width="72.1463" height="36.6341" rx="7" stroke="white" stroke-width="2"/>
<mask id="path-9-inside-1_29_194" fill="white">
<path d="M225.512 171.442L225.509 171.594C225.185 177.99 204.344 183.149 178.683 183.149C153.022 183.149 132.182 177.99 131.857 171.594L131.854 171.442V155.052H225.512V171.442Z"/>
</mask>
<path d="M225.512 171.442L225.509 171.594C225.185 177.99 204.344 183.149 178.683 183.149C153.022 183.149 132.182 177.99 131.857 171.594L131.854 171.442V155.052H225.512V171.442Z" fill="#62007E"/>
<path d="M225.512 171.442L229.511 171.52L229.512 171.481V171.442H225.512ZM225.509 171.594L229.504 171.796L229.507 171.734L229.508 171.671L225.509 171.594ZM178.683 183.149L178.683 187.149H178.683V183.149ZM131.857 171.594L127.859 171.697L127.86 171.747L127.863 171.796L131.857 171.594ZM131.854 171.442H127.854V171.494L127.855 171.546L131.854 171.442ZM131.854 155.052V151.052H127.854V155.052H131.854ZM225.512 155.052H229.512V151.052H225.512V155.052ZM225.512 171.442L221.512 171.365L221.51 171.516L225.509 171.594L229.508 171.671L229.511 171.52L225.512 171.442ZM225.509 171.594L221.514 171.391C221.544 170.795 221.875 171.359 219.667 172.632C217.728 173.749 214.698 174.884 210.638 175.887C202.574 177.879 191.285 179.149 178.683 179.149V183.149V187.149C191.741 187.149 203.703 185.84 212.556 183.653C216.955 182.567 220.799 181.213 223.661 179.563C226.253 178.07 229.311 175.59 229.504 171.796L225.509 171.594ZM178.683 183.149L178.683 179.149C166.08 179.149 154.792 177.879 146.728 175.887C142.668 174.884 139.638 173.749 137.699 172.632C135.491 171.359 135.822 170.796 135.852 171.391L131.857 171.594L127.863 171.796C128.055 175.59 131.113 178.07 133.705 179.563C136.567 181.213 140.411 182.567 144.81 183.653C153.662 185.84 165.624 187.149 178.683 187.149L178.683 183.149ZM131.857 171.594L135.856 171.491L135.852 171.339L131.854 171.442L127.855 171.546L127.859 171.697L131.857 171.594ZM131.854 171.442H135.854V155.052H131.854H127.854V171.442H131.854ZM131.854 155.052V159.052H225.512V155.052V151.052H131.854V155.052ZM225.512 155.052H221.512V171.442H225.512H229.512V155.052H225.512Z" fill="white" mask="url(#path-9-inside-1_29_194)"/>
<path d="M178.683 145.345C191.5 145.345 203.036 146.645 211.311 148.714C215.463 149.752 218.682 150.956 220.815 152.217C223.08 153.556 223.512 154.579 223.512 155.052C223.512 155.525 223.081 156.548 220.815 157.888C218.682 159.148 215.463 160.352 211.311 161.39C203.036 163.458 191.5 164.76 178.683 164.76C165.866 164.76 154.329 163.458 146.055 161.39C141.902 160.352 138.683 159.148 136.551 157.888C134.285 156.548 133.854 155.525 133.854 155.052C133.854 154.579 134.286 153.556 136.551 152.217C138.683 150.956 141.902 149.752 146.055 148.714C154.329 146.645 165.866 145.345 178.683 145.345Z" fill="#62007E" stroke="white" stroke-width="4"/>
<mask id="path-12-inside-2_29_194" fill="white">
<path d="M225.512 141.003C225.512 147.469 204.546 152.711 178.683 152.711C152.82 152.711 131.854 147.469 131.854 141.003V124.613H225.512V141.003Z"/>
</mask>
<path d="M225.512 141.003C225.512 147.469 204.546 152.711 178.683 152.711C152.82 152.711 131.854 147.469 131.854 141.003V124.613H225.512V141.003Z" fill="#62007E"/>
<path d="M178.683 152.711L178.683 156.711H178.683V152.711ZM131.854 124.613V120.613H127.854V124.613H131.854ZM225.512 124.613H229.512V120.613H225.512V124.613ZM225.512 141.003H221.512C221.512 140.332 221.959 140.838 219.796 142.117C217.901 143.237 214.893 144.384 210.826 145.401C202.752 147.42 191.386 148.711 178.683 148.711V152.711V156.711C191.843 156.711 203.891 155.381 212.766 153.162C217.173 152.06 221.023 150.685 223.867 149.003C226.444 147.48 229.512 144.907 229.512 141.003H225.512ZM178.683 152.711L178.683 148.711C165.98 148.711 154.614 147.42 146.54 145.401C142.472 144.384 139.464 143.237 137.569 142.117C135.406 140.838 135.854 140.332 135.854 141.003H131.854H127.854C127.854 144.907 130.921 147.48 133.498 149.003C136.343 150.685 140.193 152.06 144.599 153.162C153.474 155.381 165.523 156.711 178.683 156.711L178.683 152.711ZM131.854 141.003H135.854V124.613H131.854H127.854V141.003H131.854ZM131.854 124.613V128.613H225.512V124.613V120.613H131.854V124.613ZM225.512 124.613H221.512V141.003H225.512H229.512V124.613H225.512Z" fill="white" mask="url(#path-12-inside-2_29_194)"/>
<path d="M178.683 114.906C191.5 114.906 203.036 116.206 211.311 118.275C215.463 119.313 218.682 120.518 220.815 121.778C223.08 123.117 223.512 124.14 223.512 124.613C223.512 125.086 223.081 126.109 220.815 127.449C218.682 128.709 215.463 129.913 211.311 130.951C203.036 133.019 191.5 134.321 178.683 134.321C165.866 134.321 154.329 133.019 146.055 130.951C141.902 129.913 138.683 128.709 136.551 127.449C134.285 126.109 133.854 125.086 133.854 124.613C133.854 124.14 134.286 123.117 136.551 121.778C138.683 120.518 141.902 119.313 146.055 118.275C154.329 116.206 165.866 114.906 178.683 114.906Z" fill="#62007E" stroke="white" stroke-width="4"/>
<mask id="path-15-inside-3_29_194" fill="white">
<path d="M225.512 110.564L225.509 110.716C225.184 117.112 204.343 122.271 178.683 122.271C153.022 122.271 132.182 117.112 131.857 110.716L131.854 110.564V94.1738H225.512V110.564Z"/>
</mask>
<path d="M225.512 110.564L225.509 110.716C225.184 117.112 204.343 122.271 178.683 122.271C153.022 122.271 132.182 117.112 131.857 110.716L131.854 110.564V94.1738H225.512V110.564Z" fill="#62007E"/>
<path d="M225.512 110.564L229.511 110.642L229.512 110.603V110.564H225.512ZM225.509 110.716L229.504 110.919L229.507 110.856L229.508 110.793L225.509 110.716ZM178.683 122.271L178.683 126.271H178.683V122.271ZM131.857 110.716L127.859 110.819L127.86 110.869L127.863 110.919L131.857 110.716ZM131.854 110.564H127.854V110.616L127.855 110.668L131.854 110.564ZM131.854 94.1738V90.1738H127.854V94.1738H131.854ZM225.512 94.1738H229.512V90.1738H225.512V94.1738ZM225.512 110.564L221.512 110.487L221.51 110.638L225.509 110.716L229.508 110.793L229.511 110.642L225.512 110.564ZM225.509 110.716L221.514 110.513C221.544 109.917 221.875 110.481 219.667 111.754C217.728 112.871 214.697 114.006 210.637 115.009C202.574 117.001 191.285 118.271 178.683 118.271V122.271V126.271C191.741 126.271 203.703 124.962 212.556 122.775C216.954 121.689 220.799 120.335 223.661 118.685C226.253 117.192 229.311 114.712 229.504 110.919L225.509 110.716ZM178.683 122.271L178.683 118.271C166.08 118.271 154.792 117.001 146.728 115.009C142.669 114.006 139.638 112.871 137.699 111.754C135.491 110.481 135.822 109.917 135.852 110.513L131.857 110.716L127.863 110.919C128.055 114.712 131.113 117.192 133.705 118.685C136.567 120.335 140.411 121.689 144.81 122.775C153.663 124.962 165.625 126.271 178.683 126.271L178.683 122.271ZM131.857 110.716L135.856 110.613L135.852 110.461L131.854 110.564L127.855 110.668L127.859 110.819L131.857 110.716ZM131.854 110.564H135.854V94.1738H131.854H127.854V110.564H131.854ZM131.854 94.1738V98.1738H225.512V94.1738V90.1738H131.854V94.1738ZM225.512 94.1738H221.512V110.564H225.512H229.512V94.1738H225.512Z" fill="white" mask="url(#path-15-inside-3_29_194)"/>
<path d="M178.683 84.4666C191.5 84.4666 203.036 85.7672 211.311 87.8357C215.463 88.8738 218.682 90.0783 220.815 91.3386C223.08 92.6778 223.512 93.7007 223.512 94.1736C223.512 94.6464 223.081 95.6701 220.815 97.0095C218.682 98.2698 215.463 99.4734 211.311 100.511C203.036 102.58 191.5 103.882 178.683 103.882C165.866 103.882 154.329 102.58 146.055 100.511C141.902 99.4734 138.683 98.2698 136.551 97.0095C134.285 95.6701 133.854 94.6464 133.854 94.1736C133.854 93.7007 134.286 92.6777 136.551 91.3386C138.683 90.0783 141.902 88.8738 146.055 87.8357C154.329 85.7672 165.866 84.4666 178.683 84.4666Z" fill="#62007E" stroke="white" stroke-width="4"/>
<path d="M224.732 27.039C224.732 22.513 221.063 18.8439 216.537 18.8439C212.011 18.8439 208.342 22.513 208.342 27.039V42.6488H224.732V27.039ZM230.976 48.8927H202.098V27.039C202.098 19.0645 208.562 12.6 216.537 12.6C224.511 12.6 230.976 19.0645 230.976 27.039V48.8927Z" fill="white"/>
<rect x="197.073" y="34.5024" width="38.9268" height="35.0244" rx="6" fill="#62007E" stroke="white" stroke-width="4" stroke-linejoin="round"/>
</svg>
